# xmcd
#
# Track frame offsets:
#	150
#	14637
#	32096
#	53675
#	72586
#	88419
#	107559
#	125962
#	142094
#	174893
#	194477
#	208822
#	223913
#	239832
#	259341
#	277241
#
# Disc length: 3865 seconds
#
# Revision: 0
# Processed by: cddbd v1.5.2PL0 Copyright (c) Steve Scherf et al.
# Submitted via: dBpowerAMP V4.0
#
DISCID=140f1710
DTITLE=La Mississippi - Versiones 20 años +
DYEAR=2009
DGENRE=Blues
TTITLE0=01 Ruta 2
TTITLE1=02 Un poco mas 
TTITLE2=03 Tus Amigos
TTITLE3=04 San Cayetano
TTITLE4=05 Sube a mi Voiture
TTITLE5=06 Buenos Aires Blues
TTITLE6=07 Blues de Juan
TTITLE7=08 Baby What You Want me to do 
TTITLE8=09 Obrero del  Amor
TTITLE9=10 Por fin te fuieste, Mabel
TTITLE10=11 Vamo y Vamo
TTITLE11=12 Que Mujer!
TTITLE12=13 Mala Transa
TTITLE13=14 Un trago para ver Mejor
TTITLE14=15 Valenti Alsina, Ritmo y Blues
TTITLE15=16 El Detalle
EXTD=Nuevas versiones con invitados
EXTT0=
EXTT1=
EXTT2=
EXTT3=
EXTT4=
EXTT5=
EXTT6=
EXTT7=
EXTT8=
EXTT9=
EXTT10=
EXTT11=
EXTT12=
EXTT13=
EXTT14=
EXTT15=
PLAYORDER=
